<svg width="1412" height="1412" viewBox="0 0 1412 1412" fill="none" xmlns="http://www.w3.org/2000/svg">
<path d="M1353.17 647.167H1235.5V529.501H1117.83V647.167H1000.17V764.834H1117.83V882.501H1235.5V764.834H1353.17M470.668 647.167V788.367H706.002C694.235 847.201 635.402 964.867 470.668 964.867C329.468 964.867 217.685 847.201 217.685 706.001C217.685 564.801 329.468 447.134 470.668 447.134C553.035 447.134 605.985 482.434 635.402 511.851L747.185 405.951C676.585 335.351 582.452 294.167 470.668 294.167C241.218 294.167 58.835 476.551 58.835 706.001C58.835 935.451 241.218 1117.83 470.668 1117.83C706.002 1117.83 864.852 953.101 864.852 717.767C864.852 688.351 864.852 670.701 858.968 647.167H470.668Z" fill="#29A610"/>
</svg>
