<svg width="1124" height="1124" viewBox="0 0 1124 1124" fill="none" xmlns="http://www.w3.org/2000/svg">
<g clip-path="url(#clip0_1211_5737)">
<path d="M0 562.009C0 792.139 138.384 989.84 336.405 1076.76C334.825 1037.52 336.124 990.406 346.188 947.708C356.993 902.085 418.501 641.47 418.501 641.47C418.501 641.47 400.548 605.586 400.548 552.551C400.548 469.266 448.818 407.064 508.935 407.064C560.055 407.064 584.752 445.46 584.752 491.438C584.752 542.826 551.976 619.693 535.121 690.887C521.04 750.503 565.012 799.129 623.824 799.129C730.306 799.129 802.022 662.365 802.022 500.325C802.022 377.15 719.061 284.956 568.169 284.956C397.69 284.956 291.485 412.091 291.485 554.101C291.485 603.065 305.921 637.593 328.533 664.332C338.93 676.613 340.374 681.552 336.612 695.655C333.916 705.995 327.725 730.89 325.161 740.755C321.42 754.99 309.886 760.079 297.021 754.823C218.499 722.767 181.93 636.777 181.93 540.113C181.93 380.465 316.573 189.034 583.593 189.034C798.163 189.034 939.387 344.304 939.387 510.977C939.387 731.443 816.819 896.148 636.144 896.148C575.47 896.148 518.397 863.351 498.845 826.096C498.845 826.096 466.219 955.584 459.308 980.589C447.392 1023.92 424.069 1067.23 402.743 1100.98C454.454 1116.27 508.098 1124.04 562.022 1124.03C872.369 1124.03 1124 872.408 1124 562.009C1124 251.622 872.369 0 562.022 0C251.644 0 0 251.622 0 562.009Z" fill="#CB1F27"/>
</g>
<defs>
<clipPath id="clip0_1211_5737">
<rect width="1124" height="1124" fill="white"/>
</clipPath>
</defs>
</svg>
